



 
http://img101.imageshack.us/img101/7910/invincibleironman.jpg

Screenshoot
 
http://img839.imageshack.us/my.php?image=theinvincibleironman720.png 
http://img89.imageshack.us/my.php?image=theinvincibleironman720.png 
http://img526.imageshack.us/my.php?image=theinvincibleironman720.png


Nel 2007 è uscito per il mercato home video un film a cartoni animati prodotto dai Marvel Studios e dalla Lions Gate Entertainment chiamato "L'invincibile Iron Man".
Il film vede protagonista, ovviamente, Tony Stark, rinarrando le sue origini in versione animata.
Il film è stato pubblicato nel 2009 sul mercato italiano, da Eagle Pictures in versione DVD e Blu-ray disc.


Who's Iron Man

Iron Man is a fictional superhero  who appears in comic books published by Marvel Comics. The character debuted in Tales of Suspense #39 (March 1963), and was created by writer-editor Stan Lee, scripter Larry Lieber, and artists Don Heck and Jack Kirby.

Born Anthony Edward Stark, and usually called Tony, he is an industrialist playboy and ingenious engineer who suffers a severe heart injury during a kidnapping in which his captors attempt to force him to build a weapon of mass destruction. He instead creates a powered suit of armor to save his life and escape captivity. He later uses the suit to protect the world as Iron Man. Through his multinational corporation ― Stark Industries ― Tony has created many military weapons, some of which, along with other technological devices of his making, have been integrated into his suit, helping him fight crime. Initially, Iron Man was a vehicle for Stan Lee to explore Cold War themes, particularly the role of American technology and business in the fight against communism. Subsequent re-imaginings of Iron Man have gradually removed the Cold War themes, replacing them with more contemporary concerns such as corporate crime and terrorism.


Iron Man Armors

Iron Man possesses powered armor that gives him superhuman strength and durability, flight, and an array of weapons. The armor is invented and worn by Stark (with occasional short-term exceptions). Other people who have assumed the Iron Man identity include Stark's long-time partner and best friend James Rhodes; close associates Harold "Happy" Hogan; Eddie March; and (briefly) Michael O'Brien.

The weapons systems of the suit have changed over the years, but Iron Man's standard offensive weapons have always been the repulsor rays that are fired from the palms of his gauntlets. Other weapons built into various incarnations of the armor include: the uni-beam projector in its chest; pulse bolts (that pick up on kinetic energy along the way; so the farther they travel, the harder they hit); an electromagnetic pulse generator; and a defensive energy shield that can be extended up to 360 degrees. Other capabilities include: generating ultra-freon (i.e., a freeze-beam); creating and manipulating magnetic fields; emitting sonic blasts; and projecting 3-dimensional holograms (to create decoys).

In addition to the general-purpose model he wears, Stark has developed several specialized suits for space travel, deep-sea diving, stealth, and other special purposes. Stark has modified suits, like the Hulkbuster heavy armor. The Hulkbuster armor is composed of add-ons to his so-called modular armor, designed to enhance its strength and durability enough to engage the Incredible Hulk in a fight. A later model, designed for use against Thor, is modeled on the Destroyer and uses a mystical powersource. Stark also develops an electronics pack during the Armor Wars that, when attached to armors that use Stark technologies, will burn-out those components—rendering the suit useless. This pack is ineffective on later models, however. While it is typically associated with James Rhodes, the War Machine armor also began as one of Stark's specialty armors.




Audio/Video

General 
Complete name : Invincible Iron Man 720p Ita Eng.mkv 
Format : Matroska 
File size : 2.44 GiB 
Duration : 1h 19mn 
Overall bit rate : 4 374 Kbps 
Encoded date : UTC 2010-06-13 09:32:06 
Writing application : mkvmerge v3.3.0 ('Language') built on Mar 24 2010 17:29:03 
Writing library : libebml v0.7.8 + libmatroska v0.8.1 
Video 
ID : 1 
Format : AVC 
Format/Info : Advanced Video Codec 
Format profile : High@L3.1 
Format settings, CABAC : Yes 
Format settings, ReFrames : 5 frames 
Muxing mode : Container profile=Unknown@3.1 
Codec ID : V_MPEG4/ISO/AVC 
Duration : 1h 19mn 
Bit rate : 2 329 Kbps 
Nominal bit rate : 2 256 Kbps 
Width : 1 280 pixels 
Height : 720 pixels 
Display aspect ratio : 16:9 
Frame rate : 25.000 fps 
Original frame rate : 23.976 fps 
Resolution : 8 bits 
Colorimetry : 4:2:0 
Scan type : Progressive 
Bits/(Pixel*Frame) : 0.101 
Stream size : 1.30 GiB (53%) 
Writing library : x264 core 61 r957 7ce0f2c 
Language : English 

Audio #1 
ID : 2 
Format : AC-3 
Format/Info : Audio Coding 3 
Codec ID : A_AC3 
Duration : 1h 19mn 
Bit rate mode : Constant 
Bit rate : 448 Kbps 
Channel(s) : 6 channels 
Channel positions : Front: L C R, Surround: L R, LFE 
Sampling rate : 48.0 KHz 
Video delay : 1s 0ms 
Stream size : 255 MiB (10%) 
Language : Italian 

Audio #2 
ID : 3 
Format : DTS 
Format/Info : Digital Theater Systems 
Codec ID : A_DTS 
Duration : 1h 19mn 
Bit rate mode : Constant 
Bit rate : 1 510 Kbps 
Channel(s) : 6 channels 
Channel positions : Front: L C R, Surround: L R, LFE 
Sampling rate : 48.0 KHz 
Resolution : 24 bits 
Stream size : 861 MiB (35%) 
Language : English 
Text 
ID : 4 
Format : UTF-8 
Codec ID : S_TEXT/UTF8 
Codec ID/Info : UTF-8 Plain Text 
Language : English 


